PathFileType	4	(X/Y/Z)	Patient4_TMGait_0pt7_02_left_05.trc.trc
DataRate	CameraRate	NumFrames	NumMarkers	Units	OrigDataRate	OrigDataStartFrame	OrigNumFrames
89.171974522293	89.171974522293	4	33	mm	89.171974522293	124	       141
Frame#	Time	Sacral			L.Shoulder			Chest			R.Shoulder			Neck			R.ASIS			L.ASIS			R.Thigh.Superior			R.Thigh.Lateral			R.Thigh.Inferior			R.Patella			L.Thigh.Superior			L.Thigh.Lateral			L.Thigh.Inferior			L.Patella			L.Shank.Superior			L.Shank.Lateral			L.Shank.Inferior			R.Shank.Superior			R.Shank.Lateral			R.Shank.Inferior			R.Heel			R.Midfoot.Superior			R.Midfoot.Lateral			R.Toe			L.Heel			L.Midfoot.Lateral			L.Midfoot.Superior			L.Toe			L.Elbow			L.Wrist			R.Elbow			R.Wrist			
		X1	Y1	Z1	X2	Y2	Z2	X3	Y3	Z3	X4	Y4	Z4	X5	Y5	Z5	X6	Y6	Z6	X7	Y7	Z7	X8	Y8	Z8	X9	Y9	Z9	X10	Y10	Z10	X11	Y11	Z11	X12	Y12	Z12	X13	Y13	Z13	X14	Y14	Z14	X15	Y15	Z15	X16	Y16	Z16	X17	Y17	Z17	X18	Y18	Z18	X19	Y19	Z19	X20	Y20	Z20	X21	Y21	Z21	X22	Y22	Z22	X23	Y23	Z23	X24	Y24	Z24	X25	Y25	Z25	X26	Y26	Z26	X27	Y27	Z27	X28	Y28	Z28	X29	Y29	Z29	X30	Y30	Z30	X31	Y31	Z31	X32	Y32	Z32	X33	Y33	Z33	

124	6.719357142857	816.948148262201	1006.463136474399	517.264609425654	992.993796808671	1422.870342047625	323.552205868451	1115.349554833243	1341.916957329493	465.758635681198	1065.211025457986	1422.072197474113	649.393975227342	1020.317944793299	1480.212457616185	477.113195291940	1044.439892570302	928.886039013518	620.053809021250	1016.028275269155	942.836784875374	345.719702733712	1030.490437393701	715.553351827448	597.741648683599	919.295269536167	629.707443338822	661.133720960088	974.325448171218	559.823564916086	582.095770572118	952.812910618585	476.772667335322	587.468947269176	1088.274243139876	765.923168142244	379.523885850036	1041.135905424791	635.639472937627	302.702937951765	1146.268218116770	580.095235934731	364.364594509812	1172.185821115181	514.554092123700	362.108521794441	1157.401377303293	441.350983166252	351.670153494143	1092.043397292824	309.471414848424	305.893221893406	1183.360827740373	213.614550000800	359.307838566257	912.034625818376	395.149785741204	594.849757566566	828.073675700068	301.921914729006	658.038652294140	855.802698888961	202.293771252637	593.628476772514	706.996227226480	44.233162063327	560.217594968897	877.236983151415	95.895494687242	600.152137350998	787.876525134739	36.699125487871	637.029454353320	996.713237953789	41.025721936939	631.829364550471	1103.611723908233	38.926955833713	402.731441554193	1176.142802266524	40.832446144742	321.079079141567	1249.899177925686	114.035515575805	340.969887916575	1382.132955379648	78.360806360988	313.053305870008	808.760714593280	1124.582266727463	237.156935710207	734.643762122797	876.016203961562	241.503940335790	1210.567068257708	1118.334614762380	751.875063692206	1401.326392713685	1239.212725898274	646.049209281551	
125	6.730571428571	817.932205925390	1005.029793406485	514.640623547598	992.150003847947	1421.948037958043	321.336576426502	1114.953408724025	1341.608249382887	463.492682682285	1064.329709236582	1421.346941579357	647.160819676552	1019.180480778874	1479.370281877892	474.885625392181	1045.587759812846	927.571103908952	617.871407695082	1017.656592110478	941.659004765301	343.702940015392	1031.429720850485	714.075490966450	595.860186380485	919.858169396323	628.442165972992	659.158243788583	974.735667749094	558.165373933339	580.282947422832	952.486347236775	474.449567739684	585.552168253029	1089.882382633551	763.595662831804	377.317548495885	1039.859130854824	633.126678297662	302.779379658758	1145.215477205229	577.332048570070	363.837244617800	1169.400955214372	511.006685834945	362.902648254966	1154.471884771052	437.862962350975	352.458748793006	1088.021515464119	306.519642826994	307.016306434727	1177.965644945685	210.055092920102	361.257578993512	910.295481560764	393.340081981889	593.205819578142	824.753017878938	301.756563856637	656.991115364678	850.318926477927	201.521191844722	592.867628623702	699.116310667931	44.901633372289	560.377434820009	869.563688452307	95.902087709467	599.993215251909	780.060595567263	36.887752388770	637.081166901901	988.928708238682	40.686210791926	631.882116684978	1095.047731281737	38.052644222137	404.977498724603	1167.408729800366	38.746424852019	323.033204432246	1243.291176641856	109.322451583927	343.755321759454	1374.643093998035	69.922868312871	315.183588368609	808.564633937370	1123.364855549329	235.272741634639	735.299141015434	874.429116225192	239.872251966183	1212.816320107366	1119.099620281193	748.260474999139	1395.819696618182	1250.370602788109	642.457165691713	
126	6.741785714286	818.795536205611	1003.733674005030	512.008200881707	991.461098369425	1421.115354566466	319.007713027664	1114.633606054269	1341.360745560326	461.177708900217	1063.504034603394	1420.741600152737	644.864027714225	1018.206609946732	1478.673069918220	472.532527620892	1046.636424168599	926.375722508789	615.660004425773	1019.192745973018	940.756773185813	341.657843007303	1032.648679313069	712.765236088740	593.919897008588	920.889869325378	627.148552173862	657.060530546636	975.850352545239	556.518829675319	578.402250281257	952.921295729908	471.955417366740	583.607555648847	1091.684612290943	761.862594496500	375.110152541789	1039.213327201648	631.367884292209	302.542470238367	1144.651499484834	575.310198783927	363.266923049390	1167.205665095781	508.205129333249	363.530859170560	1152.102726744402	435.018104906340	353.026758118561	1084.653190084744	304.344815028825	307.344488708573	1172.730213144888	207.055634767688	362.774864018836	909.136694528688	391.469545860515	591.521319946878	821.817299586537	301.729231219546	655.863078069470	845.104271340880	200.860781109531	592.104944328828	691.275524620947	45.967113784120	560.571733265464	862.053881959429	95.982481378029	599.891173046180	772.289664348455	37.256526558958	637.133236309628	981.184742203426	40.303519257876	631.939623174893	1086.262906923337	37.551248764970	406.423716121400	1158.598397419549	37.232313269644	324.321861637275	1236.434770363151	105.331148770029	346.072627244507	1367.000133701609	62.488327161627	317.056304189938	809.109007091641	1121.730157740405	233.237441812803	736.960820615851	872.350163128550	237.956972619183	1214.512159957250	1119.532860067660	744.777263001515	1389.979331771731	1260.103038666322	639.166939061733	
127	6.753000000000	819.525040722619	1002.634603687185	509.415280715867	990.927043155808	1420.435117362822	316.591732029453	1114.382783102036	1341.214660391346	458.833983822963	1062.758775297210	1420.320880036211	642.521109760171	1017.413903199599	1478.179105335397	470.083880510979	1047.556725751411	925.376757684993	613.410191410623	1020.569350618174	940.201352664498	339.556486993868	1034.098336656138	711.697579990624	591.905573154860	922.369143000301	625.896235873638	654.868252918563	977.648452578920	554.965162453994	576.479522710622	954.138194227753	469.359392194828	581.733134969848	1093.573418443245	760.809965273007	372.938518983077	1039.230658414523	630.438198195582	301.900448051634	1144.520723232319	574.065784955454	362.591818856844	1165.593051700727	506.210354004336	363.851754919852	1150.285542969310	432.869104959634	353.284271312704	1081.935664965333	302.961980559568	306.879375927452	1167.730788984530	204.688153328201	363.809542848373	908.546323363209	389.621695141512	589.879968500107	819.259595504794	301.943044339375	654.700806557350	840.193386363523	200.412638872344	591.399002093106	683.517682131807	47.569718278474	560.808678954626	854.768438438763	96.153279572400	599.876351456116	764.590379436271	37.882411513537	637.196788890644	973.483101154730	39.882655439798	631.997264210434	1077.555931423661	37.353512931401	407.165673048329	1149.968538817714	36.245223325941	325.009889056703	1229.455693566802	102.200356534797	347.831662276861	1359.369093391930	56.436972683303	318.558322228799	810.412729174481	1119.747923452036	231.045972015444	739.660374416462	869.844125804113	235.751372426891	1215.577857505840	1119.626663427625	741.457953991200	1383.928001197573	1268.390558404177	636.165987001173	
